<svg width="32" height="41" viewBox="0 0 32 41" fill="none" xmlns="http://www.w3.org/2000/svg">
<path d="M25.2362 7.8325C24.04 6.62422 22.6172 5.66377 21.0492 5.00613C19.4813 4.3485 17.799 4.00659 16.0987 4H16C12.5522 4 9.24558 5.36964 6.80761 7.80761C4.36964 10.2456 3 13.5522 3 17V24C3 24.7956 3.31607 25.5587 3.87868 26.1213C4.44129 26.6839 5.20435 27 6 27H8C8.79565 27 9.55871 26.6839 10.1213 26.1213C10.6839 25.5587 11 24.7956 11 24V19C11 18.2044 10.6839 17.4413 10.1213 16.8787C9.55871 16.3161 8.79565 16 8 16H5.045C5.29449 13.267 6.55656 10.726 8.58346 8.87578C10.6103 7.02558 13.2556 5.99986 16 6H16.0837C18.8167 6.01155 21.4468 7.04338 23.4585 8.89324C25.4702 10.7431 26.7185 13.2776 26.9587 16H24C23.2044 16 22.4413 16.3161 21.8787 16.8787C21.3161 17.4413 21 18.2044 21 19V24C21 24.7956 21.3161 25.5587 21.8787 26.1213C22.4413 26.6839 23.2044 27 24 27H26C26.7956 27 27.5587 26.6839 28.1213 26.1213C28.6839 25.5587 29 24.7956 29 24V17C29.0065 15.2995 28.6774 13.6144 28.0316 12.0412C27.3857 10.4681 26.4358 9.03788 25.2362 7.8325ZM8 18C8.26522 18 8.51957 18.1054 8.70711 18.2929C8.89464 18.4804 9 18.7348 9 19V24C9 24.2652 8.89464 24.5196 8.70711 24.7071C8.51957 24.8946 8.26522 25 8 25H6C5.73478 25 5.48043 24.8946 5.29289 24.7071C5.10536 24.5196 5 24.2652 5 24V18H8ZM27 24C27 24.2652 26.8946 24.5196 26.7071 24.7071C26.5196 24.8946 26.2652 25 26 25H24C23.7348 25 23.4804 24.8946 23.2929 24.7071C23.1054 24.5196 23 24.2652 23 24V19C23 18.7348 23.1054 18.4804 23.2929 18.2929C23.4804 18.1054 23.7348 18 24 18H27V24Z" fill="white"/>
<path d="M12.92 34.952C12.92 35.4 12.7387 35.7947 12.376 36.136C12.0347 36.456 11.6293 36.616 11.16 36.616C10.6907 36.616 10.2 36.3067 9.688 35.688C9.19733 35.048 8.952 34.504 8.952 34.056C8.952 33.5227 9.09067 32.9787 9.368 32.424C9.38933 32.2747 9.464 31.528 9.592 30.184C9.72 28.84 10.0507 26.5787 10.584 23.4C11.1387 20.2 11.4907 18.024 11.64 16.872V16.552C11.64 16.04 11.448 15.784 11.064 15.784C10.7013 15.784 10.328 15.976 9.944 16.36C9.98667 16.4453 10.008 16.616 10.008 16.872C10.008 17.128 9.72 17.9493 9.144 19.336C8.568 20.7013 7.74667 22.7813 6.68 25.576C6.36 26.344 5.93333 26.728 5.4 26.728C4.86667 26.728 4.38667 26.408 3.96 25.768C3.53333 25.128 3.32 24.584 3.32 24.136C3.32 23.6667 3.39467 23.2293 3.544 22.824C4.07733 21.544 4.68533 20.2747 5.368 19.016C6.05067 17.736 6.584 16.7227 6.968 15.976C7.37333 15.2293 7.672 14.6853 7.864 14.344C8.07733 14.0027 8.29067 13.832 8.504 13.832C8.71733 13.832 8.90933 13.8533 9.08 13.896C9.48533 13.4053 10.0293 13.16 10.712 13.16C11.3947 13.16 12.0773 13.3733 12.76 13.8C13.464 14.2267 13.816 15.2933 13.816 17C13.816 17.5973 13.7627 18.4613 13.656 19.592C13.5493 20.7013 13.4853 21.4053 13.464 21.704C15.192 16.776 16.728 13.6933 18.072 12.456C18.3067 12.2213 18.6373 12.104 19.064 12.104C20.024 12.104 20.6213 12.296 20.856 12.68C21.112 13.0427 21.24 13.7253 21.24 14.728C21.24 15.7093 21.144 16.776 20.952 17.928C20.76 19.08 20.4613 20.5413 20.056 22.312C19.6507 24.0613 19.384 25.224 19.256 25.8C19.1493 26.3547 19.096 26.8987 19.096 27.432C19.096 27.9653 19.128 28.232 19.192 28.232C19.3627 28.232 19.7893 27.6667 20.472 26.536C21.176 25.384 21.592 24.808 21.72 24.808C21.848 24.808 21.912 25.0107 21.912 25.416C21.912 26.8453 21.7413 28.36 21.4 29.96C21.08 31.56 20.6107 32.776 19.992 33.608C19.3947 34.44 18.8507 34.856 18.36 34.856C18.1467 34.856 17.88 34.7387 17.56 34.504C17.24 34.248 17.048 34.088 16.984 34.024C16.28 33.256 15.928 32.136 15.928 30.664C15.928 29.3627 16.5893 25.5013 17.912 19.08C18.3173 17.032 18.5947 15.6133 18.744 14.824C17.144 17.512 15.896 20.36 15 23.368C14.1253 26.3547 13.4427 29.7573 12.952 33.576L12.856 34.376L12.92 34.952Z" fill="#023C2A"/>
</svg>
